<svg xmlns="http://www.w3.org/2000/svg" width="218" height="30" fill="none" viewBox="0 0 218 30">
						  	<path fill="#38B0E5" d="M49.84 19.156a2.44 2.44 0 00-.2-1.028 1.891 1.891 0 00-.544-.77c-.229-.229-.544-.4-.915-.514-.372-.114-.887-.172-1.517-.172h-2.26v4.967h2.289c.572 0 1.03-.057 1.402-.17.372-.115.686-.258.915-.486.258-.2.458-.486.572-.77.143-.315.2-.658.2-1.057h.058zm3.547-.229a5.82 5.82 0 01-.4 2.142c-.258.656-.658 1.198-1.202 1.684-.543.485-1.23.856-2.06 1.113-.83.257-1.888.4-3.204.4h-4.548c-.315 0-.573-.086-.773-.257-.2-.172-.286-.457-.286-.885V8.166c0-.4.086-.685.286-.857.2-.17.458-.256.744-.256h9.755a.54.54 0 01.23.057.788.788 0 01.17.228c.058.114.087.257.115.428.029.171.029.4.029.657s0 .457-.029.628a1.543 1.543 0 01-.114.428c-.057.114-.115.2-.172.228a.325.325 0 01-.229.086h-7.295v4.282h2.861c1.116 0 2.031.114 2.746.314.716.2 1.316.514 1.831.942.487.428.887.942 1.145 1.541.257.6.4 1.285.4 2.055zM59.59 23.776a.324.324 0 01-.086.229.544.544 0 01-.286.17c-.143.058-.315.087-.543.115-.23.029-.515.029-.859.029-.343 0-.629 0-.858-.029-.229-.028-.4-.057-.543-.114a.828.828 0 01-.286-.171c-.058-.086-.086-.143-.086-.229V7.506c0-.086.028-.172.086-.23.057-.056.143-.142.286-.17.143-.058.314-.086.543-.115.229-.028.515-.028.83-.028.343 0 .63 0 .858.028.229.029.4.058.544.115a.826.826 0 01.286.17c.057.087.086.144.086.23v16.27h.028zM73.7 19.27c0 .857-.171 1.628-.486 2.284a4.357 4.357 0 01-1.402 1.656c-.6.456-1.344.77-2.174.999-.858.228-1.802.342-2.832.342a9.053 9.053 0 01-1.573-.114 8.789 8.789 0 01-1.23-.285 6.67 6.67 0 01-.859-.343c-.2-.114-.372-.2-.458-.285-.085-.086-.143-.143-.2-.229-.057-.085-.086-.2-.114-.342a2.872 2.872 0 01-.057-.543c0-.228-.03-.485-.03-.827 0-.371.03-.628.087-.743a.298.298 0 01.286-.2c.114 0 .257.058.457.172.2.114.458.228.744.37.315.144.658.286 1.087.4.43.115.916.172 1.517.172.486 0 .915-.057 1.316-.171a3.27 3.27 0 001-.486c.258-.2.487-.456.63-.77.143-.286.23-.628.23-1 0-.4-.058-.77-.201-1.084-.143-.314-.343-.6-.658-.8-.286-.228-.658-.4-1.116-.513-.457-.114-1.001-.172-1.63-.172h-1.831c-.143 0-.23-.028-.315-.057-.086-.028-.143-.114-.2-.2a.828.828 0 01-.086-.4c0-.17-.029-.399-.029-.684 0-.257 0-.457.029-.628.029-.171.057-.286.086-.4.057-.085.114-.171.2-.2a.847.847 0 01.286-.057h1.86c.543 0 1.03-.057 1.43-.171.43-.114.772-.257 1.058-.485.286-.2.487-.457.63-.771a2.27 2.27 0 00.229-1.028c0-.314-.058-.628-.143-.885-.115-.256-.258-.485-.487-.656-.2-.171-.486-.314-.8-.428-.315-.115-.716-.143-1.174-.143-.543 0-1 .057-1.43.171-.43.114-.801.229-1.116.371-.314.143-.572.257-.8.371-.23.114-.373.172-.487.172a.407.407 0 01-.172-.058c-.057-.028-.086-.085-.114-.2a3.71 3.71 0 01-.086-.37c0-.172-.029-.371-.029-.628v-.486c0-.142.029-.285.058-.4.028-.113.057-.228.114-.313.057-.086.114-.172.2-.286.086-.085.286-.2.572-.342.286-.143.63-.286 1.059-.4.429-.114.887-.228 1.402-.314a10.33 10.33 0 011.659-.114c.915 0 1.745.086 2.432.285.686.2 1.258.486 1.716.857a3.48 3.48 0 011.03 1.37c.229.542.343 1.142.343 1.855 0 .543-.085 1.056-.228 1.513a3.491 3.491 0 01-.659 1.2 4.28 4.28 0 01-1 .884c-.401.229-.83.4-1.288.514v.028c.543.058 1.03.2 1.487.457.458.229.83.543 1.145.885.315.371.572.77.744 1.256.171.457.257.97.257 1.485l.115-.058zM89.981 23.776a.324.324 0 01-.085.229.544.544 0 01-.287.17c-.143.058-.314.087-.543.115-.229.029-.515.029-.83.029-.343 0-.63 0-.858-.029-.229-.028-.4-.057-.544-.114a.828.828 0 01-.286-.171c-.057-.086-.085-.143-.085-.229v-6.965h-6.466v6.965a.324.324 0 01-.086.229.544.544 0 01-.286.17c-.143.058-.314.087-.543.115-.23.029-.515.029-.859.029-.343 0-.629 0-.858-.029-.229-.028-.4-.057-.543-.114a.827.827 0 01-.287-.171c-.057-.086-.085-.143-.085-.229V7.506c0-.086.028-.172.085-.23a.544.544 0 01.287-.17c.143-.058.314-.086.543-.115.229-.028.515-.028.858-.028.344 0 .63 0 .859.028.229.029.4.058.543.115a.827.827 0 01.286.17c.058.087.086.144.086.23v6.308h6.466V7.505c0-.085.028-.171.085-.228.058-.057.143-.143.286-.171.144-.058.315-.086.544-.115.229-.028.515-.028.858-.028.343 0 .63 0 .83.028.229.029.4.058.543.115a.827.827 0 01.287.17c.057.087.085.144.085.23v16.27zM103.959 22.895c0 .257 0 .457-.029.657a1.53 1.53 0 01-.114.428c-.057.114-.086.171-.172.229a.325.325 0 01-.229.085h-8.668c-.286 0-.543-.085-.744-.257-.2-.171-.286-.456-.286-.856V8.166c0-.4.115-.685.286-.857.2-.17.458-.256.744-.256h8.611c.086 0 .143.028.2.057a.771.771 0 01.172.228.954.954 0 01.086.428c.029.171.029.4.029.657s0 .457-.029.628a5.605 5.605 0 01-.086.428c-.057.114-.086.171-.172.228a.309.309 0 01-.2.086h-6.15v4.196h5.206c.086 0 .143.029.229.086a.807.807 0 01.172.228.83.83 0 01.085.4c.029.171.029.37.029.628 0 .257 0 .457-.029.628a3.05 3.05 0 01-.085.4c-.058.114-.086.17-.172.228-.057.057-.143.057-.229.057h-5.207v4.853h6.208c.086 0 .143.028.229.085.057.057.115.114.172.229.057.114.086.256.114.428.029.171.029.4.029.656zM118.378 21.639c0 .228 0 .4-.029.57 0 .143-.029.286-.057.4a.846.846 0 01-.115.286c-.057.085-.114.171-.2.285-.086.114-.286.229-.572.4s-.629.314-1.03.457c-.4.142-.858.256-1.373.37-.515.115-1.087.143-1.688.143-1.173 0-2.26-.17-3.204-.542-.944-.371-1.774-.913-2.432-1.627-.658-.714-1.173-1.627-1.545-2.712-.343-1.085-.543-2.34-.543-3.768 0-1.456.2-2.769.601-3.91.4-1.143.944-2.085 1.63-2.855a7.07 7.07 0 012.518-1.77c.972-.4 2.06-.6 3.261-.6.486 0 .944.029 1.373.115.458.085.859.17 1.23.314.372.142.716.285 1.03.456.315.172.515.314.63.429.114.114.2.228.257.285a.812.812 0 01.115.314c.028.114.057.285.057.428 0 .171.028.371.028.628s0 .486-.028.685c-.029.2-.057.343-.086.457-.057.114-.086.2-.172.257a.309.309 0 01-.2.086c-.143 0-.315-.086-.515-.229-.2-.143-.458-.342-.801-.514a4.987 4.987 0 00-1.173-.513 5.277 5.277 0 00-1.602-.229c-.686 0-1.287.143-1.831.428a3.946 3.946 0 00-1.373 1.2c-.372.513-.658 1.141-.858 1.883-.2.742-.286 1.57-.286 2.484 0 .999.114 1.884.314 2.626.201.742.515 1.342.887 1.827.401.485.858.828 1.402 1.085.544.228 1.173.342 1.86.342.629 0 1.172-.085 1.602-.228a7.704 7.704 0 001.173-.486c.314-.17.6-.342.801-.485.2-.143.371-.2.486-.2.086 0 .172.029.2.058.057.028.086.114.143.2.029.113.057.256.086.456.029.2.029.457.029.77v-.056z"></path>
						  	<path fill="#714293" d="M134.347 23.81a.325.325 0 01-.086.228.824.824 0 01-.286.17c-.143.058-.315.086-.544.115-.229.029-.515.029-.858.029-.343 0-.63 0-.858-.03-.229-.028-.401-.056-.544-.113a.824.824 0 01-.286-.171.325.325 0 01-.086-.229V9.965h-6.437v13.844a.324.324 0 01-.085.229.84.84 0 01-.287.17c-.143.058-.314.086-.543.115-.229.029-.515.029-.858.029-.344 0-.63 0-.859-.03-.228-.028-.4-.056-.543-.113a.824.824 0 01-.286-.171.325.325 0 01-.086-.229V8.138c0-.371.086-.657.286-.828.2-.171.429-.286.744-.286h11.414c.315 0 .573.086.744.286.172.171.258.457.258.828v15.671h.086zM149.943 15.644c0-.913-.086-1.713-.201-2.455-.143-.742-.372-1.37-.715-1.912a3.35 3.35 0 00-1.373-1.228c-.572-.285-1.287-.428-2.146-.428-.858 0-1.573.171-2.174.485a4.055 4.055 0 00-1.402 1.285c-.343.542-.6 1.17-.743 1.884a11.588 11.588 0 00-.229 2.284c0 .941.057 1.77.2 2.54.143.742.372 1.399.715 1.913.343.542.801.942 1.373 1.227.572.285 1.288.428 2.146.428.858 0 1.573-.143 2.174-.485.572-.314 1.059-.742 1.402-1.313a5.691 5.691 0 00.744-1.913 12.26 12.26 0 00.229-2.34v.028zm3.69-.171c0 1.427-.172 2.712-.544 3.825a7.45 7.45 0 01-1.573 2.855c-.715.77-1.573 1.398-2.603 1.798-1.03.4-2.232.628-3.605.628-1.345 0-2.517-.171-3.519-.514a5.953 5.953 0 01-2.489-1.599c-.658-.713-1.173-1.627-1.487-2.74-.344-1.113-.487-2.426-.487-3.94 0-1.398.172-2.654.544-3.767a7.559 7.559 0 011.573-2.826 7.337 7.337 0 012.604-1.799c1.03-.4 2.231-.628 3.604-.628 1.316 0 2.461.172 3.462.514a6.235 6.235 0 012.517 1.599c.658.713 1.173 1.627 1.517 2.712.343 1.084.515 2.398.515 3.882h-.029zM166.704 19.27c0 .857-.171 1.628-.486 2.284-.343.657-.801 1.228-1.402 1.656-.601.456-1.345.77-2.174.999-.858.228-1.802.342-2.832.342a9.058 9.058 0 01-1.574-.114 8.787 8.787 0 01-1.23-.285 6.688 6.688 0 01-.858-.343c-.2-.114-.372-.2-.458-.285a1.41 1.41 0 01-.2-.229c-.057-.085-.086-.2-.115-.342a2.923 2.923 0 01-.057-.543c0-.228-.028-.485-.028-.827 0-.371.028-.628.085-.743a.299.299 0 01.286-.2c.115 0 .258.058.458.172.2.114.458.228.744.37.315.144.658.286 1.087.4.429.115.916.172 1.516.172.487 0 .916-.057 1.316-.171a3.267 3.267 0 001.002-.486c.257-.2.486-.456.629-.77.143-.286.229-.628.229-1 0-.4-.057-.77-.2-1.084-.143-.314-.344-.6-.658-.8-.286-.228-.658-.4-1.116-.513-.458-.114-1.001-.172-1.631-.172h-1.831a.878.878 0 01-.314-.057c-.086-.028-.143-.114-.201-.2a.83.83 0 01-.085-.4c0-.17-.029-.399-.029-.684 0-.257 0-.457.029-.628.028-.171.057-.286.114-.4.057-.085.114-.171.2-.2a.85.85 0 01.286-.057h1.86c.543 0 1.03-.057 1.43-.171.429-.114.773-.257 1.059-.485.286-.2.486-.457.629-.771a2.27 2.27 0 00.229-1.028c0-.314-.057-.628-.143-.885-.115-.256-.258-.485-.486-.656-.201-.171-.487-.314-.801-.428-.315-.115-.716-.143-1.173-.143-.544 0-1.002.057-1.431.171a7.239 7.239 0 00-1.115.371c-.315.143-.573.257-.802.371-.228.114-.371.172-.486.172-.057 0-.114-.029-.172-.058-.057-.028-.085-.085-.114-.2-.029-.085-.057-.228-.086-.37 0-.172-.028-.371-.028-.628v-.486c0-.142.028-.285.057-.4a1.01 1.01 0 01.114-.313 5.54 5.54 0 01.201-.286c.085-.085.286-.2.572-.342a5.498 5.498 0 011.058-.4c.429-.114.887-.228 1.402-.314a10.329 10.329 0 011.659-.114c.916 0 1.717.086 2.432.285.687.2 1.259.486 1.716.857.458.37.801.828 1.03 1.37.229.542.344 1.142.344 1.855 0 .543-.086 1.056-.229 1.513a3.491 3.491 0 01-.658 1.2 4.271 4.271 0 01-1.002.884c-.4.229-.829.4-1.287.514v.028c.544.058 1.03.2 1.488.457.457.229.829.543 1.144.885.315.371.572.77.744 1.256.172.457.257.97.257 1.485l.086-.058zM183.558 23.805a.325.325 0 01-.086.228.824.824 0 01-.286.171c-.143.057-.315.086-.544.114-.228.029-.515.029-.858.029-.343 0-.629 0-.858-.029-.229-.028-.401-.057-.544-.114a.824.824 0 01-.286-.171.325.325 0 01-.086-.228v-9.078V13.7c0-.343.029-.628.029-.885h-.029c-.085.114-.143.257-.257.428a4.89 4.89 0 01-.315.514c-.114.17-.229.37-.343.57-.114.2-.257.372-.372.543l-6.008 8.935c-.085.085-.143.17-.228.257a2.486 2.486 0 01-.287.17 5.564 5.564 0 01-.429.087c-.171 0-.4.028-.686.028-.344 0-.63 0-.83-.029-.2-.028-.372-.057-.486-.114a1.007 1.007 0 01-.258-.171c-.057-.086-.057-.143-.057-.257v-16.3c0-.085.029-.17.086-.228a.824.824 0 01.286-.171c.143-.057.315-.086.544-.114.228-.029.515-.029.829-.029.343 0 .63 0 .858.029.229.028.401.057.544.114a.824.824 0 01.286.171.325.325 0 01.086.229v10.048c0 .314-.029.628-.029.942h.029c.143-.257.343-.6.572-.97.229-.372.458-.743.715-1.086l6.008-8.934a.764.764 0 01.2-.229c.057-.057.172-.114.286-.171.115-.057.258-.086.458-.086.172-.028.401-.028.687-.028.343 0 .6 0 .829.028.2.029.372.057.487.115.114.057.2.114.257.17.057.058.086.144.086.258v16.3-.03zM200.093 23.776a.46.46 0 01-.085.257.834.834 0 01-.286.171c-.143.058-.315.086-.544.115-.229.028-.544.028-.887.028-.372 0-.686 0-.915-.028-.229-.029-.429-.057-.572-.115-.144-.057-.258-.114-.315-.2-.057-.085-.115-.17-.172-.313l-1.373-3.825a9.726 9.726 0 00-.601-1.4 3.372 3.372 0 00-.715-.913 2.077 2.077 0 00-.887-.485 4.234 4.234 0 00-1.116-.143h-.772v6.88a.462.462 0 01-.086.257.826.826 0 01-.286.17c-.143.058-.315.087-.543.115-.229.029-.515.029-.859.029-.343 0-.629 0-.858-.029-.229-.028-.4-.057-.543-.114a.842.842 0 01-.287-.171c-.057-.057-.085-.143-.085-.257V7.534c0-.114.028-.171.085-.257a.84.84 0 01.287-.171c.143-.058.314-.086.543-.115.229-.028.515-.028.858-.028.344 0 .63 0 .859.028.228.029.4.058.543.115a.824.824 0 01.286.17c.057.058.086.144.086.258v6.48h.772a3.05 3.05 0 001.059-.172c.315-.114.572-.285.83-.514.257-.228.457-.542.658-.884.2-.372.4-.828.572-1.37l1.173-3.426c.057-.114.086-.228.171-.314.058-.086.172-.143.286-.2.143-.057.315-.086.544-.114.229-.029.544-.029.915-.029.344 0 .63 0 .859.029.229.029.4.057.543.086.143.028.229.085.258.17.057.058.057.144.057.258 0 .114-.029.257-.057.428-.029.171-.115.4-.201.656l-1.173 3.055c-.2.57-.429 1.056-.629 1.456-.2.4-.429.742-.686 1.027a3.322 3.322 0 01-.744.685 3.67 3.67 0 01-.887.429c.343.142.686.314.973.513.286.2.572.429.801.714.257.285.486.657.715 1.085.229.428.457.942.715 1.57l1.402 3.568c.143.371.229.628.257.742.029.143.029.257.029.343l.028-.029zM208.9 10.331l-2.432 7.308h4.892l-2.431-7.308h-.029zm7.924 12.617c.115.314.172.571.201.771.028.2 0 .314-.115.428-.086.086-.257.143-.515.172-.257.028-.6.028-1.03.028-.457 0-.801 0-1.058-.028-.258 0-.458-.029-.572-.086-.143-.029-.229-.086-.286-.171-.058-.086-.086-.172-.143-.286l-1.173-3.454h-6.494l-1.087 3.369a1.071 1.071 0 01-.143.314c-.058.085-.143.142-.287.2a1.441 1.441 0 01-.543.085c-.229.029-.544.029-.916.029-.4 0-.715 0-.972-.029-.229-.028-.401-.086-.487-.2-.085-.114-.114-.257-.085-.428.028-.171.085-.428.2-.742l5.321-15.272c.057-.143.114-.285.2-.371a.504.504 0 01.344-.2c.143-.057.371-.086.658-.086.286 0 .629-.028 1.087-.028.515 0 .944 0 1.258.028.315 0 .544.058.716.086.171.057.286.114.371.228.086.086.144.229.201.4l5.321 15.272.028-.029z"></path>
						  	<path fill="#38B0E5" d="M0 19.413h6.18v-8.82H0v8.82zM23.887 19.413h6.179v-8.82h-6.18v8.82z"></path>
						  	<path fill="#714293" d="M22.116 8.82h7.953V0H15.937v8.82h6.18z"></path>
						  	<path fill="#38B0E5" d="M14.132 8.82V0H0v8.82h14.132zM15.937 21.18V30h14.132v-8.82H15.937zM6.18 21.18H0V30h14.132v-8.82H6.18zM14.14 10.593H7.99v8.82h14.132v-8.82H14.14z"></path>
						</svg>