<svg width="3590" height="3083" viewBox="0 0 3590 3083" fill="none" xmlns="http://www.w3.org/2000/svg">
<path d="M3154.6 1751.32C3154.6 2486.33 2558.76 3082.17 1823.75 3082.17C1088.75 3082.17 492.906 2486.33 492.906 1751.32C492.906 1016.32 1088.75 420.474 1823.75 420.474C1902.2 420.474 1979.06 427.261 2053.78 440.28C2060.92 441.525 2053.78 288.995 2168.79 149.34C2439.89 -138.185 3372.59 5.09646 3590 445.108C3369.69 653.492 2686.34 634.029 2226.29 215.059C2144.14 305.425 2163.56 464.237 2168.79 465.637C2736.53 617.617 3154.6 1135.65 3154.6 1751.32Z" fill="#171E26"/>
<path d="M2801.35 477.955C3343.55 650.473 3524.28 428.664 3524.28 428.664C3524.28 428.664 3277.83 116.474 2867.07 50.7625C2402.13 -23.6164 2267.37 165.781 2267.37 165.781C2267.37 165.781 2571.17 404.714 2801.35 477.955Z" fill="#2F6F4A"/>
<circle cx="1823.75" cy="1751.29" r="1281.56" fill="#F79D01"/>
<path d="M3105.31 1751.29C3105.31 2459.07 2546.25 3032.85 1856.61 3032.85C1895.15 2692.68 2612 2795.52 2650.53 1854.13C2588.87 999.76 2103.27 564.663 1856.61 469.733C2546.25 469.733 3105.31 1043.51 3105.31 1751.29Z" fill="#F67A00"/>
<path d="M2415.24 149.344C2415.24 158.006 2404.21 165.027 2390.6 165.027C2376.98 165.027 2365.95 158.006 2365.95 149.344C2365.95 140.682 2376.98 133.66 2390.6 133.66C2404.21 133.66 2415.24 140.682 2415.24 149.344Z" fill="#5FAB7C"/>
<path d="M2530.25 117.977C2530.25 126.639 2519.22 133.66 2505.61 133.66C2492 133.66 2480.96 126.639 2480.96 117.977C2480.96 109.315 2492 102.294 2505.61 102.294C2519.22 102.294 2530.25 109.315 2530.25 117.977Z" fill="#5FAB7C"/>
<path d="M2661.69 107.522C2661.69 116.183 2650.66 123.205 2637.05 123.205C2623.44 123.205 2612.4 116.183 2612.4 107.522C2612.4 98.8598 2623.44 91.8381 2637.05 91.8381C2650.66 91.8381 2661.69 98.8598 2661.69 107.522Z" fill="#5FAB7C"/>
<path d="M2793.14 128.433C2793.14 137.094 2782.1 144.116 2768.49 144.116C2754.88 144.116 2743.84 137.094 2743.84 128.433C2743.84 119.771 2754.88 112.749 2768.49 112.749C2782.1 112.749 2793.14 119.771 2793.14 128.433Z" fill="#5FAB7C"/>
<path d="M2908.15 149.344C2908.15 158.006 2897.11 165.027 2883.5 165.027C2869.89 165.027 2858.86 158.006 2858.86 149.344C2858.86 140.682 2869.89 133.66 2883.5 133.66C2897.11 133.66 2908.15 140.682 2908.15 149.344Z" fill="#5FAB7C"/>
<path d="M3039.59 191.166C3039.59 199.828 3028.55 206.85 3014.94 206.85C3001.33 206.85 2990.3 199.828 2990.3 191.166C2990.3 182.505 3001.33 175.483 3014.94 175.483C3028.55 175.483 3039.59 182.505 3039.59 191.166Z" fill="#5FAB7C"/>
<path d="M862.205 1717.06C858.03 1723.65 859.973 1732.4 866.718 1736.31C917.364 1765.7 974.461 1782.39 1033.11 1784.83C1091.76 1787.27 1150.04 1775.4 1202.96 1750.32C1210.01 1746.98 1212.67 1738.42 1209.06 1731.51C1205.44 1724.6 1196.92 1721.95 1189.87 1725.27C1141.35 1748.07 1087.98 1758.85 1034.28 1756.61C980.587 1754.38 928.3 1739.19 881.848 1712.44C875.09 1708.55 866.38 1710.47 862.205 1717.06Z" fill="#171E26"/>
<path d="M607.918 1209.09H1002.18H1133.75H1445.86V1307.67H607.918V1209.09Z" fill="#171E26"/>
<path fill-rule="evenodd" clip-rule="evenodd" d="M0.0659824 1209.09C0.022062 1211.83 0 1214.56 0 1217.31C0 1494.07 224.36 1718.43 501.121 1718.43C777.883 1718.43 1002.24 1494.07 1002.24 1217.31C1002.24 1214.56 1002.22 1211.83 1002.18 1209.09H607.918H0.0659824ZM2135.86 1209.09H1445.86H1133.75C1133.71 1211.83 1133.68 1214.56 1133.68 1217.31C1133.68 1494.07 1358.04 1718.43 1634.81 1718.43C1911.57 1718.43 2135.93 1494.07 2135.93 1217.31C2135.93 1214.56 2135.9 1211.83 2135.86 1209.09Z" fill="#171E26"/>
<path d="M110.682 1303.19C102.949 1304.19 97.4671 1311.29 98.7743 1318.97C108.59 1376.7 132.299 1431.26 167.946 1477.89C203.592 1524.53 250.014 1561.72 303.144 1586.34C310.22 1589.62 318.502 1586.19 321.502 1579C324.502 1571.8 321.083 1563.56 314.018 1560.25C265.457 1537.56 223.021 1503.44 190.383 1460.74C157.746 1418.04 135.963 1368.14 126.803 1315.33C125.47 1307.64 118.416 1302.18 110.682 1303.19Z" fill="white"/>
<path d="M1293.66 1303.19C1285.92 1304.19 1280.44 1311.29 1281.75 1318.97C1291.56 1376.7 1315.27 1431.26 1350.92 1477.89C1386.57 1524.53 1432.99 1561.72 1486.12 1586.34C1493.2 1589.62 1501.48 1586.19 1504.48 1579C1507.48 1571.8 1504.06 1563.56 1496.99 1560.25C1448.43 1537.56 1406 1503.44 1373.36 1460.74C1340.72 1418.04 1318.94 1368.14 1309.78 1315.33C1308.44 1307.64 1301.39 1302.18 1293.66 1303.19Z" fill="white"/>
</svg>
