<svg width="188" height="36" viewBox="0 0 188 36" version="1.1" xmlns="http://www.w3.org/2000/svg" xmlns:xlink="http://www.w3.org/1999/xlink">
<title>logotype</title>
<desc>Created using Figma</desc>
<g id="Canvas" transform="translate(-124 791)">
<g id="logotype">
<g id="logotype">
<use xlink:href="#path0_fill" transform="translate(124 -791)" fill="#097CE0"/>
<use xlink:href="#path1_fill" transform="translate(124 -791)" fill="#097CE0"/>
<use xlink:href="#path2_fill" transform="translate(124 -791)" fill="#097CE0"/>
</g>
<g id="CreditWallet">
<use xlink:href="#path3_fill" transform="translate(184 -790)" fill="#313A52"/>
</g>
</g>
</g>
<defs>
<path id="path0_fill" d="M 30 0C 31.1046 0 32 0.895431 32 2C 32 3.10457 31.1046 4 30 4L 6 4C 4.89542 4 4 4.89543 4 6L 4 30C 4 31.1046 4.89542 32 6 32L 42 32C 43.1046 32 44 31.1046 44 30L 44 14C 44 12.8954 43.1046 12 42 12L 10 12C 8.89542 12 8 11.1046 8 10C 8 8.89543 8.89542 8 10 8L 44 8C 46.2091 8 48 9.79086 48 12L 48 32C 48 34.2091 46.2091 36 44 36L 4 36C 1.79086 36 0 34.2091 0 32L 0 4C 0 1.79086 1.79086 0 4 0L 30 0Z"/>
<path id="path1_fill" d="M 40 18C 40 16.8954 39.1046 16 38 16L 10 16C 8.89542 16 8 16.8954 8 18C 8 19.1046 8.89542 20 10 20L 38 20C 39.1046 20 40 19.1046 40 18Z"/>
<path id="path2_fill" d="M 38 24C 39.1046 24 40 24.8954 40 26C 40 27.1046 39.1046 28 38 28L 10 28C 8.89542 28 8 27.1046 8 26C 8 24.8954 8.89542 24 10 24L 38 24Z"/>
<path id="path3_fill" d="M 7.416 27.264C 5.016 27.264 3.384 26.6 2.52 25.272C 1.672 23.944 1.248 21.76 1.248 18.72C 1.248 15.68 1.68 13.52 2.544 12.24C 3.408 10.944 5.032 10.296 7.416 10.296C 8.84 10.296 10.408 10.496 12.12 10.896L 12.024 13.056C 10.584 12.8 9.144 12.672 7.704 12.672C 6.264 12.672 5.288 13.104 4.776 13.968C 4.264 14.816 4.008 16.424 4.008 18.792C 4.008 21.144 4.256 22.752 4.752 23.616C 5.248 24.464 6.216 24.888 7.656 24.888C 9.096 24.888 10.552 24.768 12.024 24.528L 12.096 26.736C 10.448 27.088 8.888 27.264 7.416 27.264ZM 14.6387 27L 14.6387 15L 17.2307 15L 17.2307 16.44C 18.5907 15.56 19.9507 14.992 21.3107 14.736L 21.3107 17.352C 19.9347 17.624 18.7587 17.976 17.7827 18.408L 17.2547 18.624L 17.2547 27L 14.6387 27ZM 31.7608 24.84L 32.4328 24.768L 32.4808 26.712C 30.6568 27.08 29.0408 27.264 27.6328 27.264C 25.8568 27.264 24.5768 26.776 23.7928 25.8C 23.0248 24.824 22.6408 23.264 22.6408 21.12C 22.6408 16.864 24.3768 14.736 27.8488 14.736C 31.2088 14.736 32.8888 16.568 32.8888 20.232L 32.7208 22.104L 25.2808 22.104C 25.2968 23.096 25.5128 23.824 25.9288 24.288C 26.3448 24.752 27.1208 24.984 28.2568 24.984C 29.3928 24.984 30.5608 24.936 31.7608 24.84ZM 30.3208 20.088C 30.3208 18.904 30.1288 18.08 29.7448 17.616C 29.3768 17.136 28.7448 16.896 27.8488 16.896C 26.9528 16.896 26.2968 17.144 25.8808 17.64C 25.4808 18.136 25.2728 18.952 25.2568 20.088L 30.3208 20.088ZM 45.1963 10.008L 45.1963 27L 42.6043 27L 42.6043 26.376C 41.4363 26.968 40.3643 27.264 39.3883 27.264C 37.8203 27.264 36.6683 26.792 35.9323 25.848C 35.2123 24.904 34.8523 23.32 34.8523 21.096C 34.8523 18.872 35.2523 17.256 36.0523 16.248C 36.8683 15.24 38.1323 14.736 39.8443 14.736C 40.4203 14.736 41.3323 14.84 42.5803 15.048L 42.5803 10.008L 45.1963 10.008ZM 42.1723 24.504L 42.5803 24.336L 42.5803 17.232C 41.6203 17.072 40.7323 16.992 39.9163 16.992C 38.3003 16.992 37.4923 18.336 37.4923 21.024C 37.4923 22.496 37.6763 23.52 38.0443 24.096C 38.4283 24.656 39.0283 24.936 39.8443 24.936C 40.6603 24.936 41.4363 24.792 42.1723 24.504ZM 48.3652 27L 48.3652 15L 50.9812 15L 50.9812 27L 48.3652 27ZM 48.3652 12.96L 48.3652 10.2L 50.9812 10.2L 50.9812 12.96L 48.3652 12.96ZM 60.6103 17.232L 57.2983 17.232L 57.2983 22.512C 57.2983 23.488 57.3703 24.136 57.5143 24.456C 57.6583 24.776 58.0263 24.936 58.6183 24.936L 60.5863 24.864L 60.7063 26.952C 59.6343 27.16 58.8183 27.264 58.2583 27.264C 56.8983 27.264 55.9623 26.952 55.4503 26.328C 54.9543 25.704 54.7063 24.528 54.7063 22.8L 54.7063 17.232L 53.1703 17.232L 53.1703 15L 54.7063 15L 54.7063 11.52L 57.2983 11.52L 57.2983 15L 60.6103 15L 60.6103 17.232ZM 61.7479 10.56L 64.5559 10.56L 66.9079 24.696L 67.4119 24.696L 70.5319 10.608L 73.6519 10.608L 76.7719 24.696L 77.2999 24.696L 79.6519 10.56L 82.4599 10.56L 79.2199 27L 74.9239 27L 72.0919 13.824L 69.2839 27L 64.9639 27L 61.7479 10.56ZM 93.1515 18.696L 93.1515 24.168C 93.1675 24.52 93.2555 24.784 93.4155 24.96C 93.5915 25.12 93.8555 25.224 94.2075 25.272L 94.1355 27.264C 92.7595 27.264 91.6955 26.968 90.9435 26.376C 89.6635 26.968 88.3755 27.264 87.0795 27.264C 84.6955 27.264 83.5035 25.992 83.5035 23.448C 83.5035 22.232 83.8235 21.352 84.4635 20.808C 85.1195 20.264 86.1195 19.936 87.4635 19.824L 90.5595 19.56L 90.5595 18.696C 90.5595 18.056 90.4155 17.608 90.1275 17.352C 89.8555 17.096 89.4475 16.968 88.9035 16.968C 87.8795 16.968 86.5995 17.032 85.0635 17.16L 84.2955 17.208L 84.1995 15.36C 85.9435 14.944 87.5435 14.736 88.9995 14.736C 90.4715 14.736 91.5275 15.056 92.1675 15.696C 92.8235 16.32 93.1515 17.32 93.1515 18.696ZM 87.7755 21.672C 86.6715 21.768 86.1195 22.368 86.1195 23.472C 86.1195 24.576 86.6075 25.128 87.5835 25.128C 88.3835 25.128 89.2315 25 90.1275 24.744L 90.5595 24.6L 90.5595 21.408L 87.7755 21.672ZM 96.5796 27L 96.5796 10.008L 99.1956 10.008L 99.1956 27L 96.5796 27ZM 102.65 27L 102.65 10.008L 105.266 10.008L 105.266 27L 102.65 27ZM 117.12 24.84L 117.792 24.768L 117.84 26.712C 116.016 27.08 114.4 27.264 112.992 27.264C 111.216 27.264 109.936 26.776 109.152 25.8C 108.384 24.824 108 23.264 108 21.12C 108 16.864 109.736 14.736 113.208 14.736C 116.568 14.736 118.248 16.568 118.248 20.232L 118.08 22.104L 110.64 22.104C 110.656 23.096 110.872 23.824 111.288 24.288C 111.704 24.752 112.48 24.984 113.616 24.984C 114.752 24.984 115.92 24.936 117.12 24.84ZM 115.68 20.088C 115.68 18.904 115.488 18.08 115.104 17.616C 114.736 17.136 114.104 16.896 113.208 16.896C 112.312 16.896 111.656 17.144 111.24 17.64C 110.84 18.136 110.632 18.952 110.616 20.088L 115.68 20.088ZM 127.22 17.232L 123.908 17.232L 123.908 22.512C 123.908 23.488 123.98 24.136 124.124 24.456C 124.268 24.776 124.636 24.936 125.228 24.936L 127.196 24.864L 127.316 26.952C 126.244 27.16 125.428 27.264 124.868 27.264C 123.508 27.264 122.572 26.952 122.06 26.328C 121.564 25.704 121.316 24.528 121.316 22.8L 121.316 17.232L 119.78 17.232L 119.78 15L 121.316 15L 121.316 11.52L 123.908 11.52L 123.908 15L 127.22 15L 127.22 17.232Z"/>
</defs>
</svg>
