<?xml version="1.0" encoding="UTF-8"?>
<svg viewBox="0 0 20 12" xmlns="http://www.w3.org/2000/svg" xmlns:xlink="http://www.w3.org/1999/xlink">
<use fill="#097CE0" xlink:href="#a"/>
<defs>
<path id="a" d="M17.147.517C13.632-.43 5.969-.145 0 1.945c.006.39.005 1.355.003 3.095C.002 6.266 0 7.878 0 9.945c5.5-1.5 12.5-2.5 17.147-1.428-.01-.633-.004-1.66.003-2.846.01-1.62.021-3.537-.003-5.154zM10 4.427c.013 1.38-.872 2.507-1.977 2.518C6.92 6.955 6.013 5.844 6 4.463c-.013-1.38.872-2.508 1.977-2.518 1.104-.01 2.01 1.1 2.023 2.481zm8.016 5.087c-2.425-.568-8.532-.934-14.986.868L3.025 12c7.208-2.376 14.31-.907 16.974-.231v-8a15.731 15.731 0 0 0-1.97-.417c.003 1.122-.004 2.28-.01 3.315-.007 1.186-.013 2.213-.003 2.847z" fill-rule="evenodd"/>
</defs>
</svg>
