<svg width="20" height="12" viewBox="0 0 20 12" version="1.1" xmlns="http://www.w3.org/2000/svg" xmlns:xlink="http://www.w3.org/1999/xlink">
<title>icon-money</title>
<desc>Created using Figma</desc>
<g id="Canvas" transform="translate(-52 767)">
<g id="icon-money">
<use xlink:href="#path0_fill" transform="translate(52 -767)" fill="#097CE0"/>
</g>
</g>
<defs>
<path id="path0_fill" fill-rule="evenodd" d="M 17.1468 0.517436C 13.6323 -0.430134 5.96946 -0.144673 3.05176e-05 1.94487C 0.00587845 2.33586 0.00485611 3.3004 0.0030098 5.0402C 0.00170898 6.2664 0 7.87773 0 9.94487C 5.5 8.44487 12.5 7.44487 17.1468 8.51744C 17.1374 7.88359 17.1434 6.85667 17.1503 5.67076C 17.1598 4.0507 17.171 2.13389 17.1468 0.517436ZM 9.99991 4.42631C 10.0127 5.80699 9.12767 6.93449 8.02315 6.94474C 6.91862 6.955 6.01287 5.84404 6.00008 4.46336C 5.98729 3.08274 6.87232 1.95518 7.97684 1.94499C 9.08136 1.93473 9.98712 3.0457 9.99991 4.42631ZM 18.0158 9.51408C 15.5907 8.94621 9.48402 8.58036 3.02951 10.3821C 3.0285 10.8818 3.0271 11.4201 3.0252 11.9999C 10.233 9.62352 17.3345 11.0934 19.999 11.7687L 19.999 3.76872C 19.4376 3.6063 18.7737 3.46562 18.0299 3.35209C 18.0321 4.47447 18.0253 5.63163 18.0192 6.66746C 18.0123 7.85331 18.0063 8.88023 18.0158 9.51408Z"/>
</defs>
</svg>
